{"title":"What.Not.To.Wear s08e04 Hillary","uid":7179728,"size":544276212,"categoryP":"video","categoryS":"tv_shows","magnet":"?xt=urn:btih:21e4b8f6c7a8972c24e771f7a7ea06c65ec54d88&amp;dn=What.Not.To.Wear+s08e04+Hillary&amp;tr=udp%3A%2F%2Ftracker.openbittorrent.com%3A80&amp;tr=udp%3A%2F%2Fopen.demonii.com%3A1337&amp;tr=udp%3A%2F%2Ftracker.coppersurfer.tk%3A6969&amp;tr=udp%3A%2F%2Fexodus.desync.com%3A6969","seeders":0,"leechers":2,"uploader":"April22","files":-1,"time":1334227865,"description":"WHAT NOT TO WEAR\n\nTwo fashion stylists and a team of hair and makeup advisors help revamp the look of individuals who have been nominated by their friends for makeovers due to their lamentable appearance, using a $5,000 budget.\n\nSEASON 8 EPISODE 3 - Hillary\n\nHillary is a 30-year-old, wedding-obsessed florist who has lost 40 pounds and recently opened her own flower shop. Despite having a budding career she loves and a guy she hopes to marry, she's hiding in a frightening collection of aprons, hand-me-downs and mud-brown outfits. In order for her to take her business and boyfriend to the next level, she needs to give her ego and style a giant boost if she is ever going to able to say, &quot;I do&quot; to a confident new image.\n\nMediaInfo:\n\nGeneral\nComplete name                    : C:MOVIESs08e04 Hillary.avi\nFormat                           : AVI\nFormat/Info                      : Audio Video Interleave\nFile size                        : 519 MiB\nDuration                         : 42mn 33s\nOverall bit rate                 : 1 705 Kbps\nWriting application              : Lavf52.39.0\nWriting library                  : VirtualDub build 32842/release\n\nVideo\nID                               : 0\nFormat                           : MPEG-4 Visual\nFormat profile                   : Simple@L1\nFormat settings, BVOP            : No\nFormat settings, QPel            : No\nFormat settings, GMC             : No warppoints\nFormat settings, Matrix          : Default (H.263)\nCodec ID                         : DX50\nCodec ID/Hint                    : DivX 5\nDuration                         : 42mn 33s\nBit rate                         : 1 500 Kbps\nWidth                            : 720 pixels\nHeight                           : 448 pixels\nDisplay aspect ratio             : 1.607\nFrame rate                       : 25.000 fps\nColor space                      : YUV\nChroma subsampling               : 4:2:0\nBit depth                        : 8 bits\nScan type                        : Progressive\nCompression mode                 : Lossy\nBits/(Pixel*Frame)               : 0.186\nStream size                      : 457 MiB (88%)\nWriting library                  : Lavc52.36.0\n\nAudio\nID                               : 1\nFormat                           : MPEG Audio\nFormat version                   : Version 1\nFormat profile                   : Layer 3\nMode                             : Joint stereo\nMode extension                   : MS Stereo\nCodec ID                         : 55\nCodec ID/Hint                    : MP3\nDuration                         : 42mn 33s\nBit rate mode                    : Constant\nBit rate                         : 192 Kbps\nChannel(s)                       : 2 channels\nSampling rate                    : 48.0 KHz\nCompression mode                 : Lossy\nStream size                      : 58.4 MiB (11%)\nAlignment                        : Aligned on interleaves\nInterleave, duration             : 24 ms (0.60 video frame)\nInterleave, preload duration     : 504 ms\n","torrent":{"xt":"urn:btih:21e4b8f6c7a8972c24e771f7a7ea06c65ec54d88","amp;dn":"What.Not.To.Wear+s08e04+Hillary","amp;tr":["udp%3A%2F%2Ftracker.openbittorrent.com%3A80","udp%3A%2F%2Fopen.demonii.com%3A1337","udp%3A%2F%2Ftracker.coppersurfer.tk%3A6969","udp%3A%2F%2Fexodus.desync.com%3A6969"],"infoHash":"21e4b8f6c7a8972c24e771f7a7ea06c65ec54d88","infoHashBuffer":{"type":"Buffer","data":[33,228,184,246,199,168,151,44,36,231,113,247,167,234,6,198,94,197,77,136]},"announce":[],"urlList":[]}}